# xmcd
#
# Track frame offsets:
# 150
# 18648
# 31859
# 58258
# 73863
# 87858
# 103591
# 117441
# 135537
# 148436
# 164467
# 179370
# 194539
# 207436
# 229972
#
# Disc length: 3218 seconds
#
#
# Revision: 0
# Processed by: cddbd v1.5.2PL0 Copyright (c) Steve Scherf et al.
# Submitted via: FreeRIP 2.951 
#
DISCID=e80c900f
DTITLE=Victor and Leo - Ao Vivo em Uberlândia
DYEAR=2007
DGENRE=Sertanejo
TTITLE0=Fada
TTITLE1=Sinto Falta de Você
TTITLE2=60 Dias Apaixonado/Fazenda São Francisco
TTITLE3=Amigo Apaixonado
TTITLE4=Tem que Ser Você
TTITLE5=Vida Boa
TTITLE6=Sem Você
TTITLE7=Nova York
TTITLE8=Arapuca
TTITLE9=Lembranças de Amor
TTITLE10=Jogo da Vida
TTITLE11=O Granfino e O Caipira
TTITLE12=Fotos
TTITLE13=Meu Eu em Você
TTITLE14=Chuva de Bruxaria
EXTD=
EXTT0=
EXTT1=
EXTT2=
EXTT3=
EXTT4=
EXTT5=
EXTT6=
EXTT7=
EXTT8=
EXTT9=
EXTT10=
EXTT11=
EXTT12=
EXTT13=
EXTT14=
PLAYORDER=
